<?xml version="1.0" encoding="utf-8"?>
<!-- Generator: Adobe Illustrator 19.1.0, SVG Export Plug-In . SVG Version: 6.00 Build 0)  -->
<svg version="1.1" id="Layer_1" xmlns="http://www.w3.org/2000/svg" xmlns:xlink="http://www.w3.org/1999/xlink" x="0px" y="0px"
	 viewBox="0 0 595.3 595.3" style="enable-background:new 0 0 595.3 595.3;" xml:space="preserve">
<g>
	<path d="M563.8,96.3c-6.4,0-12.2,3.9-14.6,9.9L502,224.5l-69.4,174l-19.6,49.2l-0.2,0.6c-0.1,0.2-0.1,0.3-0.2,0.5
		c-4.5,10.9-15.2,18.6-27.8,18.6c-11.8,0-22.2-6.9-27.1-16.8l-20.1-52.7l-23.2-60.8l-16.9,44.3l28.8,75.6l1.8,4.6l0.1,0.2
		c0.3,0.8,0.7,1.6,1.1,2.3c10,20.6,31.1,34.9,55.5,34.9c26.1,0,48.3-16.2,57.3-39c0,0,0,0,0,0l0.8-1.9l93-233.5l42.5-106.8
		C582.5,107.5,574.9,96.3,563.8,96.3z"/>
	<path d="M297.4,135.4c-35.6,0-64.5,28.8-64.5,64.4c0,7.3,1.2,14.3,3.5,20.9c0.2,1,0.4,2,0.8,3l0.3,0.9l0,0l42.9,112.6l16.9-44.3
		l-11.3-29.7l-14.7-38.6l0,0l-4.6-12.1c-1.7-4-2.3-8.4-2.3-13c0-18.2,14.8-33,33-33c18.2,0,33,14.8,33,33c0,4.6-0.8,9-2.5,13
		l-4.6,12.1l-14.7,38.6l-11.3,29.7l-16.9,44.3l-23.2,60.8l-20.1,52.7c-4.9,9.9-15.3,16.8-27.1,16.8c-12.6,0-23.3-7.7-27.8-18.6
		c-0.1-0.2-0.1-0.3-0.2-0.5l-0.2-0.6l-19.6-49.2l-69.4-174L45.6,106.2c-2.4-6-8.2-9.9-14.6-9.9c-11.1,0-18.7,11.2-14.6,21.5
		L59,224.5l93,233.5l0.8,1.9c0,0,0,0,0,0c9,22.8,31.3,39,57.3,39c24.5,0,45.6-14.3,55.5-34.9c0.4-0.7,0.8-1.5,1.1-2.3l0.1-0.2
		l1.7-4.6l28.8-75.6l16.9-44.3l42.9-112.6l0.4-0.9c0.4-1,0.6-2,0.8-3c2.3-6.6,3.5-13.6,3.5-20.9C361.9,164.2,333,135.4,297.4,135.4z
		"/>
	<polygon points="297.4,292.7 286.1,263.1 271.4,224.5 237.5,224.5 280.5,337.1 	"/>
</g>
</svg>
